HIERARCHY
ROOT Hips
{
  OFFSET -102.467 93.6631 130.069
  CHANNELS 6 Xposition Yposition Zposition Zrotation Xrotation Yrotation
  JOINT LeftUpLeg
  {
    OFFSET 8.64259 1.95398 -2.38835
    CHANNELS 3 Zrotation Xrotation Yrotation
    JOINT LeftLeg
    {
      OFFSET 43.7702 0 0
      CHANNELS 3 Zrotation Xrotation Yrotation
      JOINT LeftFoot
      {
        OFFSET 40.6238 0 0
        CHANNELS 3 Zrotation Xrotation Yrotation
        JOINT LeftToeBase
        {
          OFFSET 12.7242 0 0
          CHANNELS 3 Zrotation Xrotation Yrotation
          End Site
          {
            OFFSET 0 0 0
          }
        }
      }
    }
  }
  JOINT RightUpLeg
  {
    OFFSET -8.2249 1.95398 -2.59336
    CHANNELS 3 Zrotation Xrotation Yrotation
    JOINT RightLeg
    {
      OFFSET 43.5653 0 0
      CHANNELS 3 Zrotation Xrotation Yrotation
      JOINT RightFoot
      {
        OFFSET 40.6238 0 0
        CHANNELS 3 Zrotation Xrotation Yrotation
        JOINT RightToeBase
        {
          OFFSET 12.7242 0 0
          CHANNELS 3 Zrotation Xrotation Yrotation
          End Site
          {
            OFFSET 0 0 0
          }
        }
      }
    }
  }
  JOINT Spine
  {
    OFFSET 0.165834 0.87714 6.61349
    CHANNELS 3 Zrotation Xrotation Yrotation
    JOINT Spine1
    {
      OFFSET 7.38963 1.71661e-005 0
      CHANNELS 3 Zrotation Xrotation Yrotation
      JOINT Spine2
      {
        OFFSET 11.9445 1.14441e-005 0
        CHANNELS 3 Zrotation Xrotation Yrotation
        JOINT Spine3
        {
          OFFSET 14.7254 4.19617e-005 0
          CHANNELS 3 Zrotation Xrotation Yrotation
          JOINT Spine4
          {
            OFFSET 10.9679 0 0
            CHANNELS 3 Zrotation Xrotation Yrotation
            JOINT RightShoulder
            {
              OFFSET 2.46616 -1.6653 3.69651
              CHANNELS 3 Zrotation Xrotation Yrotation
              JOINT RightArm
              {
                OFFSET 13.0012 0 0
                CHANNELS 3 Zrotation Xrotation Yrotation
                JOINT RightForeArm
                {
                  OFFSET 28.7848 1.52588e-005 0
                  CHANNELS 3 Zrotation Xrotation Yrotation
                  JOINT RightHand
                  {
                    OFFSET 26.5688 1.52588e-005 0
                    CHANNELS 3 Zrotation Xrotation Yrotation
                    End Site
                    {
                      OFFSET 0 0 0
                    }
                  }
                }
              }
            }
            JOINT LeftShoulder
            {
              OFFSET 2.38034 -1.29275 -3.7523
              CHANNELS 3 Zrotation Xrotation Yrotation
              JOINT LeftArm
              {
                OFFSET 16.3182 6.10351e-005 0
                CHANNELS 3 Zrotation Xrotation Yrotation
                JOINT LeftForeArm
                {
                  OFFSET 27.0901 0 0
                  CHANNELS 3 Zrotation Xrotation Yrotation
                  JOINT LeftHand
                  {
                    OFFSET 24.5451 1.52588e-005 0
                    CHANNELS 3 Zrotation Xrotation Yrotation
                    End Site
                    {
                      OFFSET 0 0 0
                    }
                  }
                }
              }
            }
            JOINT Neck
            {
              OFFSET 5.0226 -0.0266342 0
              CHANNELS 3 Zrotation Xrotation Yrotation
              JOINT Head
              {
                OFFSET 6.69363 2.86102e-005 0
                CHANNELS 3 Zrotation Xrotation Yrotation
                End Site
                {
                  OFFSET 0 0 0
                }
              }
            }
          }
        }
      }
    }
  }
}
MOTION
Frames:	15
Frame Time:	0.0416667
-105.766 83.3201 43.8631 104.059 -87.5408 108.806 -169.779 59.0815 95.9171 -100.312 18.2636 2.14329 55.4059 4.14836 15.5267 41.8674 -1.70082 -0.92589 166.019 35.6382 69.9343 -57.9434 -17.3889 3.46529 54.0783 8.31511 10.8607 65.4038 -8.80855 1.21898 0.295036 11.9704 -92.0643 2.91116 -0.223547 -4.03655 -8.76597 -0.400835 -4.02283 -31.2529 0.998973 -3.91755 -11.2402 0.998981 -3.91756 97.0269 -51.7813 -90.0079 -6.79225 10.8962 -40.4826 -0.250468 -0.366489 -11.203 -14.4587 -0.472284 -1.42626 -88.8182 -50.2464 80.291 -24.9483 3.00537 18.9676 -3.74862 31.935 -0.00661566 -0.329246 -0.0689362 -3.15872 17.9659 -2.35845 -10.6099 -4.03603 0.875768 21.3074 
-111.084 85.3437 43.4385 53.2988 -86.9898 58.655 -157.029 53.022 77.5441 -83.834 25.1914 -1.92112 53.6773 1.56917 14.9894 43.7501 -2.9115 -5.78259 161.195 37.258 74.0945 -55.8684 -21.6484 7.03862 52.5261 8.4662 8.65269 62.2334 -7.70305 1.70512 0.479728 11.8997 -92.2238 3.05574 0.0799207 -4.34703 -8.62246 -0.111304 -4.34636 -31.1037 1.38157 -4.12281 -11.0911 1.38157 -4.12282 95.3216 -48.4648 -93.0342 -1.54894 9.32154 -46.0329 0.880717 5.32373 -16.0971 -13.0239 -0.229154 -3.28366 -90.5013 -51.5151 78.0495 -28.893 7.28001 11.959 -5.64782 38.9661 -0.0242145 -0.92926 -0.0968305 -4.81987 18.5872 -2.9472 -11.9282 -4.21432 0.728947 22.114 
-115.845 86.8434 43.3781 -13.3836 -85.762 -8.57731 -157.848 45.3018 72.4718 -61.1377 23.188 -7.96282 52.9918 -0.919684 11.0631 40.6254 -2.653 -7.30012 159.097 41.5868 76.5701 -56.2154 -21.2149 6.99 45.616 13.9274 18.9227 39.4179 0.661694 14.5225 0.792759 11.7245 -92.0289 3.42079 0.775914 -3.96579 -8.25608 0.600763 -3.99604 -30.7523 1.9312 -3.55018 -10.7396 1.93121 -3.55018 95.2598 -46.5988 -93.399 -4.01015 1.67386 -51.0702 1.71956 4.20544 -20.5619 -8.4328 0.0200604 -5.71099 -91.2098 -52.4725 77.2228 -30.8445 12.1261 8.46023 -4.14162 37.0794 -4.24776 1.61787 -0.0577303 -3.56854 16.0531 -2.3836 -9.54065 -1.63149 0.782116 19.3661 
-120.695 87.878 44.2787 -53.5032 -83.6739 -46.0619 -165.692 39.1997 75.5726 -46.6419 20.0398 -8.61142 50.2399 -3.66102 10.1895 37.6456 -1.78671 -4.92656 162.339 40.911 79.1396 -56.1816 -19.1228 5.25179 42.6598 14.8871 20.0409 37.791 -0.904626 6.0455 1.17945 11.6615 -92.0197 3.55973 1.54975 -3.94834 -8.11649 1.37463 -4.01258 -30.6229 2.66414 -3.30114 -10.6103 2.66415 -3.30113 94.7023 -45.4218 -94.4851 -2.12449 -5.16473 -53.7127 -7.20762 -9.06333 -29.802 -1.39017 -0.0161186 -7.02707 -91.4511 -53.072 77.0072 -31.1163 14.522 5.31445 -2.67605 31.3734 -7.91752 5.69301 -0.0195456 -3.33705 11.9609 -1.25718 -7.2375 0.857925 1.31721 17.8234 
-125.954 87.9051 45.1217 -81.2396 -82.8695 -69.4447 -171.619 33.882 78.9222 -46.8555 21.4271 -4.86241 56.8807 4.11727 18.8124 19.6319 1.18351 -8.21844 168.572 37.1354 80.4588 -55.2429 -12.4086 2.57968 46.97 11.281 13.0814 42.0959 -4.34303 -3.80123 1.2965 11.678 -92.0753 3.5303 1.76192 -4.05582 -8.14601 1.58187 -4.12929 -30.6537 2.89879 -3.33997 -10.641 2.89879 -3.33998 93.5918 -46.1762 -96.1714 0.270593 -13.2403 -53.7581 -19.3504 -15.4429 -41.7185 6.15455 -0.225614 -8.4355 -91.2935 -54.2243 77.4873 -29.3696 14.0504 1.65236 -3.57982 30.4837 -5.6915 10.1512 0.0267777 -3.30088 10.8489 0.150121 -7.66653 0.135485 2.59618 17.6946 
-131.793 86.4576 45.486 -86.1336 -83.4411 -70.833 -175.153 33.536 82.2895 -52.2941 20.2361 -0.678468 61.3244 13.6426 29.3288 30.3243 -0.605518 -5.44381 172.879 33.6527 81.409 -49.2811 -6.50501 0.67705 51.6117 9.2518 13.6488 45.3766 -4.56941 -1.58426 1.00242 11.426 -91.905 4.02792 1.23468 -3.7382 -7.64792 1.06908 -3.78883 -30.1544 2.30058 -3.19521 -10.1418 2.30057 -3.19522 93.427 -49.9308 -95.7799 -2.22727 -22.8495 -54.67 -22.0302 -10.1254 -49.2042 6.05465 -0.241576 -8.75025 -90.9258 -55.082 78.1927 -26.0377 12.6349 -0.929927 -4.50743 31.0882 -3.12265 11.7939 0.22713 -1.79576 13.9237 1.05716 -13.0085 -4.27586 4.39975 20.7222 
-138.064 85.0833 45.6052 -42.2239 -85.8339 -27.9195 -176.738 40.5922 84.1982 -62.1187 24.5151 0.763153 59.6184 12.5454 29.8491 39.2697 -1.71588 -3.03986 175.263 31.3797 79.1745 -39.2413 -10.4173 -0.259511 49.92 10.7207 16.0895 51.5241 -6.63155 -2.49528 0.330068 11.0609 -91.3983 4.74382 0.0866341 -2.74235 -6.93009 -0.0340953 -2.74353 -29.4433 0.906516 -2.58974 -9.43062 0.906513 -2.58976 92.8893 -52.8446 -96.1128 -1.68796 -28.9913 -51.7881 -26.2547 -4.23397 -58.0361 6.51361 -0.25883 -8.76083 -91.4806 -53.7935 77.1227 -22.6962 10.7723 -6.46852 -5.29968 30.1087 -0.392956 8.63452 0.0946094 -2.44989 20.0055 0.919861 -19.6884 -8.99035 6.04453 24.9298 
-143.641 84.5771 45.9823 40.3888 -85.613 54.4945 179.961 44.307 87.5737 -69.428 23.3161 2.3541 60.2213 9.96447 22.5904 42.0061 -2.16282 -3.26592 173.353 28.6865 79.1614 -38.0446 -14.6132 0.970066 53.5767 9.51582 15.9751 56.2513 -5.50863 3.08291 -0.0288243 11.0042 -91.2278 4.85288 -0.5617 -2.40041 -6.82009 -0.666769 -2.3734 -29.3375 0.185458 -2.45823 -9.32488 0.185457 -2.45824 93.4138 -54.0882 -95.1327 0.883779 -31.838 -46.2164 -27.9933 1.0967 -64.8721 4.35619 -0.211537 -9.70744 -92.7268 -53.1506 75.1878 -17.7375 7.57494 -15.0969 -4.36973 31.1378 0.375847 4.12087 -0.0827243 -4.30944 21.3254 -0.602298 -20.4918 -9.04106 5.10456 22.974 
-148.749 84.3841 46.1494 76.9411 -85.3082 91.0093 176.84 42.9633 91.2507 -72.2757 23.3806 3.71096 60.4122 10.6826 22.7439 47.2854 -2.22524 -0.188049 169.86 29.0179 80.8906 -44.7777 -15.1115 3.43676 59.394 6.39878 13.0536 53.6823 -2.86547 8.26253 0.0682967 11.0223 -91.0115 4.8225 -0.278589 -1.98035 -6.8499 -0.365463 -1.96619 -29.3731 0.329347 -1.97255 -9.36048 0.32934 -1.97256 93.8778 -54.8911 -94.332 2.65093 -33.816 -40.182 -29.1377 2.52624 -67.9559 -4.87739 0.0487419 -7.1416 -92.3265 -54.8763 76.1655 -11.8842 6.66755 -20.2 -1.26986 25.4054 -4.8201 6.65568 -0.0186331 -3.45904 16.855 -1.9375 -29.0062 -6.53005 5.85242 33.8902 
-152.89 84.5575 46.0343 84.4198 -85.1047 98.3615 172.726 41.7554 94.2504 -72.3779 21.5151 5.25891 61.0063 11.3931 22.3576 51.7811 -1.96583 2.80714 168.73 30.8303 82.5531 -49.143 -13.9774 3.93257 58.9507 8.07176 16.5582 50.2036 -1.46582 10.399 0.174194 10.9299 -90.7942 5.01173 0.0208667 -1.55874 -6.66015 -0.0477432 -1.55815 -29.1884 0.488311 -1.48044 -9.17573 0.488315 -1.48044 94.3595 -55.2889 -93.5737 3.64148 -33.5872 -35.7807 -27.5551 1.92872 -67.7822 -10.6011 -0.0595395 -4.60724 -91.4674 -55.6101 77.54 -9.25376 6.55324 -22.3237 3.64675 16.4754 -17.6953 12.5853 0.076719 -3.12881 14.0964 -2.74225 -35.2816 -4.6053 6.71001 41.1199 
-156.326 85.6383 46.4279 95.156 -84.6581 108.801 169.854 38.2049 96.2731 -69.9772 20.1802 6.89135 61.9103 11.8527 21.3969 54.7924 -2.07234 3.4181 168.249 29.2655 84.4301 -49.2265 -14.3788 4.64619 59.8675 6.90342 14.3627 49.3722 -1.0432 11.267 0.162913 10.8891 -90.6457 5.09397 0.0590949 -1.26833 -6.57759 0.00321934 -1.26971 -29.1082 0.437522 -1.19196 -9.09557 0.437515 -1.19196 94.9887 -55.0241 -92.6906 5.92609 -30.8536 -31.9498 -27.9514 -1.64121 -64.2966 -8.50225 -0.167986 -3.22688 -91.2764 -55.214 77.7241 -9.37351 5.96278 -24.4265 9.16438 17.5521 -26.9527 18.546 0.0975965 -3.30841 12.4474 -2.82658 -38.8569 -3.42942 7.59057 45.9129 
-159.268 86.8839 46.8385 99.8867 -82.8371 113.571 167.759 34.5103 97.6697 -66.7866 19.1008 8.5258 63.1681 12.4647 19.856 55.5781 -1.99978 3.88431 168.055 26.0365 86.2043 -47.5784 -13.3995 5.59881 62.9505 4.63967 11.9318 47.1938 -1.187 9.86563 0.032306 10.7816 -90.658 5.30761 -0.208207 -1.28742 -6.36395 -0.264655 -1.27701 -28.894 0.188308 -1.29049 -8.88134 0.18831 -1.29047 95.8896 -54.7561 -91.4025 8.26997 -27.1511 -28.6221 -24.4075 -5.25889 -57.858 -6.06561 -0.0512453 -4.55609 -90.8026 -55.2892 78.4092 -9.53717 5.79437 -26.64 17.0392 23.6709 -34.3164 19.5181 0.0266715 -3.77204 9.96388 -2.6006 -39.8972 -1.3098 8.17913 47.8238 
-161.377 88.0732 47.1369 101.763 -82.14 114.76 168.221 31.1679 97.5658 -62.1982 18.9541 9.43613 63.2167 13.0025 20.5549 57.0504 -1.96221 4.40367 168.383 24.5002 86.739 -46.0793 -11.3529 5.53591 61.8357 6.31479 14.338 45.2548 -0.737536 10.3407 -0.0603986 10.6134 -90.6115 5.64362 -0.375899 -1.19209 -6.0278 -0.428004 -1.17441 -28.5586 -0.000287488 -1.24995 -8.54593 -0.000279708 -1.24995 96.5331 -54.3204 -90.5009 11.1958 -22.6427 -25.961 -21.7822 -10.0854 -50.7168 -7.00913 -0.11709 -3.48559 -90.9181 -56.2984 78.453 -7.69565 6.80603 -26.7106 24.5344 25.3597 -43.2865 17.9051 0.242127 -2.50984 9.01635 -2.55172 -39.3974 -0.527752 8.11128 47.809 
-163.11 89.455 47.6004 108.849 -82.6146 121.586 170.649 27.3201 98.0276 -57.0521 19.0148 9.80287 64.1521 14.0365 20.9998 55.8569 -1.77815 4.67258 169.367 21.8525 87.8275 -43.0614 -10.2217 5.38167 61.7731 6.63724 15.0077 42.1909 -0.203356 10.6073 -0.0159171 10.4575 -90.5991 5.95586 -0.283439 -1.16972 -5.71557 -0.334647 -1.15613 -28.2465 0.081184 -1.20083 -8.23384 0.0811831 -1.20083 96.6955 -53.9638 -90.2957 13.6958 -17.6251 -23.7991 -18.1435 -13.9351 -42.9054 -8.60791 -0.233932 -2.13478 -90.4844 -55.9861 78.9972 -6.57957 8.81352 -26.0162 25.4938 22.3713 -47.297 15.7757 0.340961 -1.66522 9.3306 -2.29504 -37.0011 -1.23413 7.48186 45.3941 
-164.785 90.9226 48.1665 118.227 -82.9196 130.045 172.558 24.2653 98.3614 -52.9081 18.9289 9.81982 63.9016 12.4202 18.2277 56.8036 -1.63387 5.36698 170.585 18.81 88.4354 -39.6178 -9.15783 4.89902 62.1036 6.54524 14.9431 39.0604 0.0459626 9.80158 0.0220342 10.3267 -90.5598 6.21831 -0.192359 -1.09517 -5.45306 -0.240367 -1.08565 -27.9846 0.14565 -1.10235 -7.9719 0.145656 -1.10236 97.0886 -53.8974 -89.7185 15.4542 -12.6836 -22.1774 -14.116 -15.9003 -34.9907 -9.39109 -0.292172 -1.63236 -90.257 -55.0754 79.1383 -6.9043 9.8664 -25.6899 24.2206 21.1901 -46.9915 12.8489 0.11386 -2.91988 10.8478 -2.14646 -33.261 -3.61699 6.12359 41.1418 
